<svg width="835" height="877" viewBox="0 0 835 877" fill="none" xmlns="http://www.w3.org/2000/svg">
<path d="M644.662 283.413C656.752 270.657 655.716 250.18 642.591 238.756C637.103 233.989 638.449 227.651 638.242 226.427V215.881H633.297C633.297 210.263 628.844 205.682 623.382 205.682C617.92 205.682 613.467 210.263 613.467 215.881H608.522V226.427C608.315 227.678 609.687 233.963 604.147 238.809C597.494 244.641 593.663 253.135 593.663 262.109C593.637 289.511 626.152 302.958 644.662 283.413ZM623.382 210.769C626.126 210.769 628.327 213.059 628.327 215.855H618.411C618.437 213.059 620.638 210.769 623.382 210.769ZM613.467 220.968H633.297V226.4H613.467V220.968ZM607.331 242.67C610.645 239.768 612.742 235.8 613.312 231.513H620.897V249.674C616.625 250.819 613.467 254.813 613.467 259.553H618.411C618.411 256.73 620.638 254.467 623.356 254.467C626.074 254.467 628.301 256.757 628.301 259.553H633.245C633.245 254.813 630.087 250.819 625.816 249.674V231.513H633.401C633.97 235.8 636.067 239.768 639.355 242.644C656.804 257.849 646.422 286.928 624.055 287.567C600.73 288.232 589.598 258.168 607.331 242.67Z" fill="#EEDBBD"/>
<path d="M625.531 0H621.233V205.656H625.531V0Z" fill="#EEDBBD"/>
<path d="M728.954 374.644C741.043 361.888 740.008 341.411 726.883 329.987C721.394 325.22 722.74 318.883 722.533 317.658V307.112H717.589C717.589 301.494 713.136 296.914 707.674 296.914C702.211 296.914 697.759 301.494 697.759 307.112H692.814V317.658C692.607 318.909 693.979 325.194 688.439 330.04C681.786 335.872 677.954 344.366 677.954 353.34C677.928 380.742 710.444 394.216 728.954 374.644ZM707.674 302.026C710.418 302.026 712.618 304.316 712.618 307.112H702.703C702.703 304.316 704.93 302.026 707.674 302.026ZM697.759 312.225H717.589V317.658H697.759V312.225ZM691.623 333.901C694.937 330.999 697.034 327.031 697.603 322.744H705.188V340.905C700.917 342.05 697.759 346.044 697.759 350.784H702.703C702.703 347.961 704.929 345.698 707.648 345.698C710.392 345.698 712.592 347.988 712.592 350.784H717.537C717.537 346.044 714.379 342.05 710.107 340.905V322.744H717.692C718.262 327.031 720.359 330.999 723.647 333.875C741.095 349.08 730.714 378.159 708.347 378.798C685.022 379.49 673.89 349.426 691.623 333.901Z" fill="#EEDBBD"/>
<path d="M709.822 2.52979H705.525V296.94H709.822V2.52979Z" fill="#EEDBBD"/>
<path d="M420.679 877C649.44 877 834.887 866.484 834.887 853.513C834.887 840.542 649.44 830.026 420.679 830.026C191.917 830.026 6.4696 840.542 6.4696 853.513C6.4696 866.484 191.917 877 420.679 877Z" fill="#775F81"/>
<path d="M145.256 747.104V718.238H131.38L129.024 682.422L210.985 680.744C210.985 680.744 193.511 599.659 173.836 580.113C173.836 580.113 189.265 610.55 175.778 613.719C162.29 616.888 160.762 568.529 160.762 568.529L157.449 565.813C157.449 565.813 154.808 622.134 141.761 623.518C128.739 624.876 146.628 569.914 146.628 569.914C146.628 569.914 108.365 635.395 84.2374 627.14C60.1097 618.858 141.165 557.691 141.165 557.691C141.165 557.691 89.3891 564.908 89.182 552.978C88.9749 541.075 150.252 548.451 150.252 548.451C150.252 548.451 116.313 517.455 121.697 507.789C127.082 498.149 162.419 549.277 162.419 549.277C162.419 549.277 184.968 549.889 189.576 559.342C194.184 568.796 168.814 564.482 168.814 564.482C168.814 564.482 194.546 595.079 203.633 633.478C212.72 671.877 188.54 502.569 139.379 390.062C139.379 390.062 156.931 444.944 143.34 445.823C129.749 446.702 118.643 367.214 118.643 367.214C118.643 367.214 118.436 473.171 96.6637 471.467C74.8918 469.736 109.867 362.261 109.867 362.261C109.867 362.261 38.0531 488.243 21.7177 474.689C5.38237 461.108 86.2049 363.566 86.2049 363.566C86.2049 363.566 18.3782 419.567 1.83571 408.143C-14.7068 396.719 85.9978 342.236 85.9978 342.236C85.9978 342.236 0.567191 330.599 7.68641 316.166C14.8056 301.733 93.9454 331.238 93.9454 331.238C93.9454 331.238 41.8069 278.247 49.3403 267.915C56.8737 257.582 108.391 327.35 108.391 327.35C108.391 327.35 111.731 296.115 120.74 296.993C129.749 297.846 121.568 334.247 121.568 334.247C121.568 334.247 175.156 353.42 177.253 370.649C179.35 387.878 124.908 354.272 124.908 354.272C124.908 354.272 189.239 462.972 210.959 621.335C210.959 621.335 192.631 455.223 241.844 403.217C241.844 403.217 205.031 376.561 213.056 360.876C221.108 345.192 241.844 390.062 241.844 390.062C241.844 390.062 238.608 327.191 255.746 315.314C272.884 303.438 249.093 390.062 249.093 390.062C249.093 390.062 294.578 298.405 310.318 299.843C326.058 301.281 255.409 391.952 255.409 391.952C255.409 391.952 355.803 312.784 380.992 323.942C406.181 335.1 262.062 394.828 262.062 394.828C262.062 394.828 363.492 374.324 370.145 397.172C376.798 420.019 264.159 400.58 264.159 400.58C264.159 400.58 325.721 419.673 321.527 439.618C317.333 459.59 257.17 405.64 257.17 405.64C257.17 405.64 276.404 456.341 264.522 456.714C252.639 457.087 245.986 405.64 245.986 405.64C245.986 405.64 197.679 468.671 221.237 682.448H291.394V721.247H275.576V747.157H145.256V747.104Z" fill="#ECD7B7"/>
<path d="M628.508 657.417C628.508 657.417 611.266 766.064 581.443 780.044C581.443 780.044 607.331 816.872 609.428 859.372H596.873C596.873 859.372 591.643 813.117 570.467 784.065C570.467 784.065 548.773 791.068 529.952 790.802L527.079 794.557C527.079 794.557 545.122 846.19 548.514 865.55H535.44C535.44 865.55 517.396 800.202 512.167 796.181L357.667 792.133C357.667 792.133 341.202 838.122 344.076 861.236H332.918C332.918 861.236 336.775 800.735 345.137 790.243L261.001 778.02L259.551 770.404L255.357 748.622L244.795 693.659L244.769 693.633C243.423 692.647 196.98 658.296 204.487 624.77C212.099 590.738 234.88 583.335 254.891 585.039C274.929 586.744 401.91 569.861 401.91 569.861L513.979 384.044C513.979 384.044 569.949 383.884 578.596 386.84C587.216 389.796 612.587 393.044 609.428 463.744C606.296 534.471 638.19 604.638 640.287 609.219C642.358 613.852 651.264 639.682 628.508 657.417Z" fill="#607CB1"/>
<path d="M255.357 748.675L244.795 693.713L254.762 702.633C254.762 702.633 254.995 732.484 256.6 743.376C256.885 745.24 256.393 746.997 255.357 748.675Z" fill="#333332"/>
<path d="M581.443 780.044C581.443 780.044 607.331 816.872 609.428 859.372H596.873C596.873 859.372 591.643 813.117 570.467 784.065C570.467 784.065 548.773 791.068 529.952 790.802L527.078 794.557C527.078 794.557 545.122 846.19 548.514 865.55H535.44C535.44 865.55 517.396 800.202 512.167 796.181L357.667 792.133C357.667 792.133 341.202 838.122 344.076 861.236H332.918C332.918 861.236 336.775 800.735 345.137 790.243L261.001 778.02L259.551 770.404C270.243 771.469 288.183 773.6 315.728 777.727C366.909 785.37 515.61 786.621 515.61 786.621C548.488 777.887 575.204 689.745 575.204 689.745C575.204 689.745 607.461 662.796 612.509 658.855C617.557 654.914 628.534 657.391 628.534 657.391C628.534 657.391 611.266 766.064 581.443 780.044Z" fill="#333332"/>
<path d="M321.165 586.717L418.4 652.97L469.969 591.99L321.165 586.717Z" fill="#342424"/>
<path d="M545.2 777.7C545.2 777.7 580.253 725.002 584.524 693.713L612.406 672.303C612.406 672.303 597.494 745.533 578.803 769.898C578.803 769.898 559.827 778.1 545.2 777.7Z" fill="#607CB1"/>
<path d="M482.655 706.148C482.629 706.148 482.603 706.148 482.577 706.148L429.325 703.965C428.341 703.911 427.565 703.059 427.617 702.047C427.668 701.035 428.471 700.237 429.481 700.29L482.732 702.473C483.716 702.527 484.493 703.379 484.441 704.391C484.415 705.349 483.612 706.148 482.655 706.148Z" fill="#495683"/>
<path d="M538.676 728.224C528.58 728.224 516.568 727.185 506.886 723.271C500.44 720.661 496.194 716.64 494.304 711.341C491.12 702.42 495.857 693.233 496.065 692.834C496.531 691.928 497.618 691.609 498.498 692.088C499.378 692.567 499.689 693.686 499.223 694.591C499.171 694.698 495.055 702.766 497.696 710.089C499.223 714.35 502.77 717.625 508.206 719.836C527.726 727.718 558.636 723.217 558.947 723.164C559.93 723.004 560.836 723.723 560.992 724.735C561.121 725.747 560.448 726.679 559.464 726.839C558.791 726.919 549.912 728.224 538.676 728.224Z" fill="#495683"/>
<path d="M509.837 715.548C509.449 715.548 509.06 715.415 508.724 715.149C507.947 714.51 507.818 713.365 508.439 712.566C508.776 712.113 517.319 701.275 546.339 687.854C567.593 678.028 583.411 661.811 594.957 649.961C599.021 645.78 602.542 642.159 605.7 639.443C615.9 630.602 628.275 625.09 635.808 626.022C638.682 626.368 640.856 627.593 642.306 629.643C642.902 630.469 642.72 631.614 641.918 632.226C641.115 632.812 640.002 632.652 639.407 631.827C638.552 630.628 637.232 629.936 635.394 629.696C628.896 628.898 617.376 634.17 608.03 642.265C605.002 644.875 601.533 648.443 597.52 652.571C585.767 664.607 569.69 681.117 547.841 691.209C519.778 704.178 511.364 714.75 511.287 714.856C510.898 715.309 510.381 715.548 509.837 715.548Z" fill="#495683"/>
<path d="M572.874 614.944C572.383 614.944 571.891 614.731 571.528 614.331C570.881 613.559 570.933 612.414 571.684 611.722C600.29 585.625 635.705 607.381 636.067 607.621C636.922 608.153 637.18 609.272 636.663 610.151C636.145 611.029 635.058 611.296 634.203 610.763C633.867 610.55 600.678 590.232 574.065 614.491C573.703 614.784 573.289 614.944 572.874 614.944Z" fill="#495683"/>
<path d="M258.542 701.648C258.102 701.648 257.687 701.488 257.325 701.168C256.6 700.476 256.548 699.331 257.195 698.559C257.713 697.973 270.036 684.339 304.182 680.584C305.166 680.478 306.046 681.197 306.15 682.235C306.253 683.247 305.554 684.152 304.571 684.259C271.952 687.854 259.991 700.929 259.862 701.062C259.499 701.435 259.034 701.648 258.542 701.648Z" fill="#495683"/>
<path d="M342.341 699.757H342.315L281.427 698.799C280.443 698.772 279.64 697.946 279.666 696.935C279.692 695.923 280.469 695.124 281.453 695.124H281.479L342.367 696.082C343.351 696.109 344.154 696.935 344.128 697.946C344.128 698.958 343.325 699.757 342.341 699.757Z" fill="#495683"/>
<path d="M633.265 686.249L628.83 690.007L761.017 855.062L765.452 851.304L633.265 686.249Z" fill="#775F81"/>
<path d="M779.721 688.842L638.696 849.648L642.963 853.607L783.988 692.801L779.721 688.842Z" fill="#775F81"/>
<path d="M707.311 690.783H701.564V854.792H707.311V690.783Z" fill="#775F81"/>
<path d="M801.88 657.79H614.373V691.689H801.88V657.79Z" fill="#8E503F"/>
<path d="M657.813 636.354C657.813 643.037 663.017 648.523 674.692 649.002C676.271 652.464 678.394 655.5 681.345 657.87H714.896C725.847 648.976 725.873 630.602 725.873 617.926H670.395C670.395 619.87 670.395 621.974 670.446 624.131C661.722 625.622 657.813 630.522 657.813 636.354ZM707.829 652.81C707.829 652.81 714.379 634.143 710.495 622.347H719.168C719.168 622.347 721.99 641.626 707.829 652.81ZM664.958 636.487C664.906 633.291 665.787 630.841 670.654 629.67C670.938 634.25 671.508 638.99 672.699 643.384C666.02 642.558 665.01 640.108 664.958 636.487Z" fill="#E94955"/>
<path d="M527.57 324.421C520.399 307.805 507.067 307.326 499.223 317.977C491.379 328.629 515.791 352.089 515.791 352.089C515.791 352.089 541.835 357.468 527.57 324.421Z" fill="#5F150A"/>
<path d="M443.615 341.224C443.615 341.224 426.063 323.489 440.69 308.098C455.317 292.706 473.205 303.757 473.205 303.757C473.205 303.757 474.836 292.04 488.816 290.709C502.795 289.378 501.838 318.803 504.763 324.155C507.688 329.507 556.487 409.128 534.042 439.565L425.416 419.167C425.416 419.167 430.956 390.062 440.379 383.378L443.615 341.224Z" fill="#5F150A"/>
<path d="M505.54 365.137C499.585 377.892 488.997 371.235 488.997 371.235L485.036 383.138V390.461C470.151 413.256 447.317 403.563 447.317 403.563L446.567 398.21L445.816 392.831C442.813 392.725 439.629 391.766 436.988 390.301C431.396 387.212 429.921 380.955 429.48 374.803C428.885 366.788 430.775 358.719 433.752 351.37C435.176 347.828 437.532 344.606 438.904 341.118C438.904 341.091 446.515 321.732 460.235 318.323C460.235 318.323 465.543 316.086 469.245 322.611C472.947 329.161 479.211 330.466 483.871 331.877C488.531 333.315 488.531 344.42 487.573 351.716C486.615 359.039 491.482 360.77 491.612 357.495C491.69 354.965 494.537 353.101 496.427 351.982C498.628 350.677 500.802 350.757 503.106 352.036C507.714 354.672 507.507 360.876 505.54 365.137Z" fill="#E4946E"/>
<path d="M478.694 381.807C478.694 381.807 472.455 393.843 446.567 398.21L445.816 392.831C445.816 392.858 465.154 393.71 478.694 381.807Z" fill="#D17C5A"/>
<path d="M444.288 401.246C444.288 401.246 440.975 405.48 442.347 408.276C443.719 411.099 444.625 414.481 439.965 415.2C435.279 415.892 399.476 431.017 391.554 446.995C383.633 462.972 378.895 491.225 374.908 506.218C370.922 521.21 355.026 585.119 355.026 585.119L514.704 582.989C514.704 582.989 510.148 543.631 510.924 534.657C511.701 525.683 518.121 504.46 518.121 504.46L531.376 526.855L574.764 585.119C574.764 585.119 594.284 568.956 579.32 545.575C579.32 545.575 578.181 534.87 581.392 531.169C584.602 527.468 570.596 494.927 570.596 494.927L542.171 439.592C542.171 439.592 500.698 410.353 497.1 407.051C493.502 403.749 498.343 400.873 491.353 397.145C491.353 397.145 493.061 385.961 485.036 384.124C485.036 384.124 481.671 392.059 477.684 395.228C473.671 398.397 465.542 403.722 456.378 403.27C447.214 402.817 447.55 399.835 447.55 399.835C447.55 399.835 445.505 399.329 444.288 401.246Z" fill="#F3B558"/>
<path d="M375.789 544.537C375.711 544.537 375.633 544.51 375.53 544.484C375.167 544.351 374.96 543.924 375.116 543.525L401.237 470.242C401.366 469.869 401.78 469.656 402.169 469.816C402.531 469.949 402.738 470.375 402.583 470.775L376.462 544.058C376.358 544.351 376.074 544.537 375.789 544.537Z" fill="#D49743"/>
<path d="M420.316 561.712C420.187 561.712 420.057 561.686 419.928 561.606C419.591 561.393 419.488 560.94 419.695 560.594C422.465 555.961 425.313 551.034 426.866 545.868C427.668 543.152 427.513 540.17 427.332 537.267C427.254 536.122 427.202 534.977 427.202 533.859C427.151 526.828 428.885 520.917 430.723 514.632C431.086 513.407 431.448 512.156 431.81 510.878C433.157 506.084 434.322 500.253 435.461 494.634C436.263 490.666 436.988 486.912 437.817 483.556C437.92 483.157 438.282 482.917 438.671 483.024C439.059 483.13 439.292 483.53 439.189 483.902C438.386 487.258 437.635 490.986 436.859 494.927C435.72 500.572 434.555 506.431 433.183 511.277C432.82 512.555 432.458 513.807 432.095 515.032C430.283 521.21 428.574 527.015 428.626 533.832C428.626 534.924 428.704 536.042 428.756 537.161C428.937 540.196 429.118 543.338 428.212 546.294C426.607 551.62 423.733 556.653 420.912 561.366C420.808 561.579 420.575 561.712 420.316 561.712Z" fill="#D49743"/>
<path d="M485.891 568.237C485.787 568.237 485.658 568.21 485.554 568.157C484.855 567.784 468.597 558.677 463.73 554.949C458.553 550.954 444.703 542.167 427.746 546.774C427.358 546.88 426.969 546.641 426.866 546.241C426.762 545.842 426.995 545.442 427.384 545.336C444.936 540.569 459.252 549.623 464.585 553.751C469.374 557.425 486.072 566.772 486.227 566.852C486.564 567.038 486.693 567.491 486.512 567.864C486.382 568.104 486.124 568.237 485.891 568.237Z" fill="#D49743"/>
<path d="M518.095 505.206C517.836 505.206 517.578 505.046 517.448 504.806L509.19 487.844C509.009 487.471 509.164 487.045 509.5 486.858C509.863 486.672 510.277 486.832 510.458 487.178L518.717 504.14C518.898 504.513 518.743 504.939 518.406 505.126C518.328 505.179 518.199 505.206 518.095 505.206Z" fill="#D49743"/>
<path d="M512.685 483.849C512.633 483.849 512.607 483.849 512.555 483.849C512.167 483.769 511.908 483.396 511.986 482.997C515.636 461.88 540.644 439.964 541.705 439.032C542.016 438.766 542.456 438.819 542.715 439.112C542.974 439.432 542.922 439.885 542.637 440.151C542.378 440.364 516.982 462.652 513.41 483.237C513.332 483.583 513.021 483.849 512.685 483.849Z" fill="#D49743"/>
<path d="M473.257 409.954C473.205 409.954 473.154 409.954 473.154 409.954C472.765 409.954 472.455 409.608 472.455 409.208C472.455 408.809 472.791 408.489 473.179 408.489C473.309 408.489 482.758 408.596 490.732 396.719C490.965 396.373 491.405 396.293 491.741 396.533C492.078 396.772 492.155 397.225 491.922 397.571C483.871 409.554 474.448 409.954 473.257 409.954Z" fill="#D49743"/>
<path d="M466.578 420.206C460.158 420.206 455.576 418.874 455.472 418.848C455.084 418.741 454.877 418.315 454.98 417.942C455.084 417.543 455.498 417.33 455.86 417.437C456.093 417.516 480.402 424.573 495.392 405.161C495.65 404.841 496.09 404.788 496.401 405.054C496.712 405.32 496.764 405.773 496.505 406.093C487.522 417.729 475.328 420.206 466.578 420.206Z" fill="#D49743"/>
<path d="M575.179 537.773C574.868 537.773 574.557 537.56 574.48 537.214C574.35 536.681 570.985 524.139 547.168 527.521C546.779 527.574 546.417 527.308 546.365 526.882C546.313 526.482 546.572 526.109 546.987 526.056C572.176 522.488 575.748 536.282 575.878 536.868C575.981 537.267 575.722 537.666 575.36 537.746C575.308 537.773 575.23 537.773 575.179 537.773Z" fill="#D49743"/>
<path d="M420.316 560.967C420.316 560.967 441.544 561.793 451.019 566.586C460.494 571.379 477.373 583.469 477.373 583.469L462.074 593.055L391.554 589.247L404.498 578.462C404.473 578.462 419.048 570.394 420.316 560.967Z" fill="#644947"/>
<path d="M374.857 574.228L469.969 587.809L383.167 599.206L374.857 574.228Z" fill="#AEBECC"/>
<path d="M556.28 622.746C544.501 630.841 503.805 668.628 503.805 668.628L415.967 660.293L418.349 642.212L462.022 593.055L469.918 591.99V587.809L467.122 588.128L514.16 542.46C514.16 542.46 555.064 524.778 569.406 553.324C583.799 581.844 568.085 614.651 556.28 622.746Z" fill="#6B4F4E"/>
<path d="M429.403 688.68C429.403 688.68 423.552 721.673 408.408 724.016C404.395 714.75 413.3 689.505 413.3 689.505L429.403 688.68Z" fill="#1A1A1A"/>
<path d="M238.737 596.863C228.719 626.954 238.478 649.215 256.238 660.586C274.023 671.957 408.408 724.016 408.408 724.016C408.408 724.016 419.151 658.642 431.137 650.866L414.284 639.416C414.284 639.416 379.568 614.305 346.458 600.431C316.66 587.995 248.419 567.784 238.737 596.863Z" fill="#6B4F4E"/>
<path d="M507.3 656.033L505.462 653.769C505.928 653.37 553.096 612.654 558.248 607.887L560.163 610.071C554.986 614.891 509.242 654.355 507.3 656.033Z" fill="#483333"/>
<path d="M430.62 652.251C429.947 651.985 362.948 625.249 343.014 614.385C323.081 603.52 302.422 589.167 302.215 589.007L303.82 586.557C304.027 586.69 324.582 600.964 344.361 611.775C364.139 622.56 430.982 649.242 431.655 649.508L430.62 652.251Z" fill="#483333"/>
<path d="M365.356 624.877C364.786 624.877 364.243 624.53 364.01 623.945C360.359 614.225 339.701 602.056 339.494 601.949C338.795 601.55 338.562 600.644 338.95 599.925C339.338 599.206 340.218 598.967 340.917 599.366C341.798 599.872 362.663 612.175 366.676 622.879C366.961 623.652 366.598 624.504 365.848 624.797C365.692 624.85 365.511 624.877 365.356 624.877Z" fill="#483333"/>
<path d="M431.137 650.893L475.173 661.864C475.173 661.864 482.525 653.103 492.932 654.568C503.339 656.032 515.584 657.843 515.584 657.843C515.584 657.843 496.945 682.315 497.644 693.739C497.644 693.739 491.974 686.922 479.186 688.147C466.423 689.372 414.465 693.739 414.465 693.739C414.465 693.739 422.335 656.219 431.137 650.893Z" fill="#E3926E"/>
<path d="M469.969 587.809V591.99L462.073 593.055L467.173 588.128L469.969 587.809Z" fill="#6B4F4E"/>
<path d="M467.174 588.128L462.074 593.055L386.843 603.387L263.357 585.119L230.091 476.366L360.955 488.429L387.568 597.315L467.174 588.128Z" fill="#8FA0B2"/>
<path d="M425.416 471.041C425.416 471.041 437.842 479.163 438.464 482.971C439.085 486.779 433.105 491.013 426.995 486.352C420.86 481.719 425.416 471.041 425.416 471.041Z" fill="black"/>
<path d="M401.91 470.535C401.91 470.535 411.592 445.85 412.498 435.331C413.43 424.813 412.317 410.273 418.633 400.314C424.95 390.355 427.565 379.464 427.565 379.464C427.565 379.464 430.205 377.546 429.351 385.775C428.497 394.003 426.762 397.997 426.555 403.456C426.348 408.915 426.141 410.273 426.141 410.273C426.141 410.273 432.587 402.924 438.697 409.421C444.806 415.919 446.722 417.729 449.673 418.235C452.624 418.741 444.729 420.872 440.25 418.981C440.25 418.981 444.185 423.535 449.673 424.12C455.162 424.706 449.854 429.047 445.816 428.328C441.777 427.609 435.642 424.866 435.642 424.866C435.642 424.866 442.891 431.79 444.936 432.535C446.981 433.281 439.732 437.275 432.587 431.177C432.587 431.177 435.435 440.311 430.542 445.77C430.542 445.77 429.092 450.909 429.351 460.575C429.61 470.242 426.969 486.326 426.969 486.326C426.969 486.326 406.777 470.348 401.91 470.535Z" fill="#E4946E"/>
<path d="M526.38 524.565C526.38 524.565 534.871 514.1 544.191 523.686C544.191 523.686 553.873 521.583 556.746 530.503C556.746 530.503 564.383 534.87 564.901 541.315C565.419 547.786 556.746 562.618 545.64 559.982C545.64 559.982 541.472 566.612 533.343 563.31C533.343 563.31 528.425 566.106 526.38 565.068C524.334 564.029 526.38 556.333 526.38 556.333C526.38 556.333 519.416 554.576 521.124 550.049C522.833 545.522 525.525 541.315 525.525 541.315C525.525 541.315 515.688 545.336 509.915 543.578C504.142 541.821 510.096 542.007 515.688 537.294C521.28 532.58 526.38 524.565 526.38 524.565Z" fill="#E4946E"/>
<path d="M535.606 535.246L525.732 556.009L527.011 556.653L536.885 535.889L535.606 535.246Z" fill="#BF6A4C"/>
<path d="M544.905 540.256L532.694 562.948L533.939 563.657L546.151 540.965L544.905 540.256Z" fill="#BF6A4C"/>
<path d="M553.92 544.127L545.018 559.656L546.245 560.4L555.146 544.871L553.92 544.127Z" fill="#BF6A4C"/>
<path d="M479.108 343.967C478.538 343.967 478.02 343.621 477.788 343.062C476.648 340.292 469.995 336.777 466.06 335.233C465.309 334.94 464.947 334.088 465.232 333.315C465.517 332.543 466.345 332.17 467.096 332.463C468.261 332.916 478.461 337.07 480.428 341.917C480.739 342.662 480.402 343.541 479.651 343.86C479.496 343.914 479.315 343.967 479.108 343.967Z" fill="#5F150A"/>
<path d="M472.429 352.488C471.963 352.488 471.497 352.249 471.212 351.823C467.976 346.683 463.756 348.973 463.29 349.24C462.617 349.639 461.737 349.399 461.323 348.707C460.935 348.015 461.142 347.109 461.841 346.71C464.222 345.245 469.788 344.127 473.62 350.225C474.06 350.917 473.853 351.823 473.205 352.275C472.972 352.408 472.714 352.488 472.429 352.488Z" fill="black"/>
<path d="M438.412 347.429C438.179 347.429 437.92 347.376 437.713 347.242C437.04 346.843 436.781 345.938 437.169 345.245C438.308 343.168 441.959 339.893 447.68 342.289C448.405 342.609 448.767 343.461 448.457 344.207C448.146 344.952 447.318 345.325 446.593 345.006C441.933 343.062 439.888 346.31 439.655 346.683C439.37 347.163 438.904 347.429 438.412 347.429Z" fill="black"/>
<path d="M441.648 336.964C441.156 336.964 440.664 336.697 440.405 336.218C440.017 335.499 440.25 334.62 440.949 334.194C445.686 331.425 451.718 332.33 451.977 332.383C452.754 332.517 453.298 333.262 453.168 334.061C453.039 334.86 452.314 335.419 451.537 335.286C451.485 335.286 446.23 334.487 442.373 336.751C442.114 336.884 441.881 336.964 441.648 336.964Z" fill="#5F150A"/>
<path d="M451.382 361.462C450.786 361.143 445.635 358.214 445.583 355.071C445.557 353.873 446.23 352.861 447.576 352.036C452.391 349.133 452.34 339.6 452.34 339.493L453.763 339.467C453.763 339.893 453.815 349.959 448.275 353.287C446.981 354.06 447.007 354.778 447.007 355.018C447.033 356.749 450.113 359.066 452.055 360.131L451.382 361.462Z" fill="#BF6A4C"/>
<path d="M448.249 375.895C441.751 376.907 437.894 364.605 437.894 364.605C437.894 364.605 451.123 366.602 457.88 365.963C464.636 365.324 457.051 374.537 448.249 375.895Z" fill="#FDFDFB"/>
<path d="M105.75 758.155C105.75 758.155 68.2645 762.628 61.8442 779.884C55.424 797.14 52.9128 862.487 52.9128 862.487C52.9128 862.487 269.57 878.997 324.194 862.487C324.194 862.487 328.983 779.778 293.128 762.948C276.353 755.066 105.75 758.155 105.75 758.155Z" fill="#4D668E"/>
<path d="M71.6816 777.381C71.6816 777.381 192.605 799.004 299.393 777.461L71.6816 777.381Z" fill="#434C76"/>
<path d="M221.263 852.129C221.263 852.129 227.088 866.109 235.579 864.964C244.07 863.819 250.801 843.607 255.202 825.739C259.603 807.871 271.046 795.036 271.046 795.036C271.046 795.036 240.472 808.297 235.165 816.179C229.858 824.062 221.263 852.129 221.263 852.129Z" fill="#484F7B"/>
<path d="M280.055 788.858C260.406 812.318 247.772 804.915 243.578 824.381C239.359 843.874 234.285 856.336 224.447 854.525C214.636 852.714 209.251 844.246 211.762 828.722C214.273 813.197 224.111 799.323 244.795 791.734C265.48 784.171 283.368 776.768 271.46 763.427C271.46 763.427 264.082 782.733 244.096 783.08C224.111 783.452 208.655 783.266 208.655 783.266C208.655 783.266 203.763 793.172 196.203 792.107C189.136 791.095 187.764 787.553 187.634 787.127C187.608 787.1 187.608 787.101 187.608 787.074H145.877L137.127 743.562C137.127 743.562 152.375 734.002 156.776 729.848C161.151 725.694 206.921 698.453 238.323 713.445C269.699 728.41 267.784 750.246 267.784 750.246C267.784 750.246 299.704 765.424 280.055 788.858Z" fill="#F68850"/>
<path d="M208.655 783.266C208.655 783.266 203.763 793.172 196.203 792.107C189.136 791.095 187.764 787.553 187.634 787.127C187.608 787.101 187.608 787.101 187.608 787.074C185.693 773.706 197.239 773.866 201.562 774.159C205.937 774.452 208.655 783.266 208.655 783.266Z" fill="#FBFCFD"/>
<path d="M187.608 788.192C187.117 788.192 186.676 787.846 186.547 787.314C185.486 782.227 185.926 778.526 187.867 775.996C190.171 772.987 194.055 772.508 197.549 772.401C203.193 772.268 209.303 768.434 216.784 760.312C225.431 750.938 240.808 744.121 241.456 743.855C241.999 743.615 242.621 743.882 242.854 744.441C243.086 745 242.828 745.666 242.284 745.905C242.129 745.985 226.673 752.829 218.312 761.856C210.416 770.404 203.814 774.478 197.575 774.612C194.572 774.691 191.285 775.064 189.524 777.354C188.023 779.298 187.738 782.494 188.618 786.834C188.747 787.42 188.359 788.006 187.79 788.139C187.764 788.192 187.686 788.192 187.608 788.192Z" fill="#C95D32"/>
<path d="M204.72 773.307C204.513 773.307 204.306 773.253 204.125 773.12C203.633 772.774 203.504 772.108 203.814 771.576C208.267 764.652 200.76 758.368 200.449 758.102C198.559 756.557 190.611 745.985 189.705 744.787C189.343 744.308 189.421 743.615 189.887 743.243C190.353 742.87 191.026 742.95 191.388 743.456C194.857 748.089 200.501 755.359 201.769 756.397C205.031 759.087 210.002 765.957 205.601 772.801C205.419 773.147 205.057 773.307 204.72 773.307Z" fill="#C95D32"/>
<path d="M198.43 752.376C198.43 752.376 222.79 748.062 224.266 750.193C225.716 752.323 210.442 766.383 210.442 766.383L207.076 768.833C207.076 768.833 207.413 765.132 206.895 763.747C206.377 762.336 203.012 757.968 201.07 755.865C199.129 753.761 198.43 752.376 198.43 752.376Z" fill="#FDFCFC"/>
<path d="M105 729.502C105 729.502 104.119 740.952 108.339 748.675C112.559 756.397 106.423 761.27 104.922 763.055C103.42 764.865 95.887 773.333 112.533 780.55C129.205 787.766 152.867 788.858 165.681 784.518C165.681 784.518 180.929 781.988 184.45 772.082C187.971 762.149 167.778 724.15 161.461 724.016C155.145 723.91 153.048 740.127 153.048 740.127C153.048 740.127 131.638 741.938 128.661 741.219C125.684 740.5 106.76 725.162 105 729.502Z" fill="#F3864F"/>
<path d="M165.681 785.636C165.164 785.636 164.698 785.263 164.62 784.704C164.516 784.091 164.931 783.532 165.5 783.426C165.655 783.399 180.179 780.869 183.44 771.682C185.615 765.558 177.253 745.533 168.891 733.044C165.008 727.212 162.445 725.135 161.436 725.108C157.035 725.028 154.627 736.319 154.109 740.26L154.006 741.139L153.151 741.219C150.951 741.405 131.483 743.029 128.428 742.284C127.859 742.151 127.496 741.538 127.626 740.952C127.755 740.367 128.351 739.994 128.92 740.127C130.914 740.606 143.573 739.807 152.116 739.088C152.685 735.36 155.093 722.898 161.41 722.898C161.436 722.898 161.462 722.898 161.487 722.898C163.662 722.925 166.743 725.934 170.678 731.792C178.651 743.722 188.126 764.945 185.46 772.455C181.784 782.866 166.51 785.503 165.863 785.609C165.811 785.636 165.759 785.636 165.681 785.636Z" fill="#C95D32"/>
<path d="M164.232 748.462C160.374 748.462 158.484 755.598 155.947 755.572C153.41 755.545 144.194 755.545 143.392 761.75C142.589 767.954 145.644 776.689 153.048 777.408C160.452 778.127 172.982 773.999 173.732 764.839C174.483 755.652 171.014 754.214 169.59 752.563C168.192 750.885 167.545 748.462 164.232 748.462Z" fill="white"/>
<path d="M150.304 748.196C150.123 748.196 149.941 748.142 149.786 748.063C149.268 747.77 149.087 747.077 149.372 746.545C149.398 746.491 151.572 742.497 152.012 739.941C152.116 739.328 152.685 738.929 153.255 739.035C153.85 739.142 154.239 739.701 154.135 740.313C153.643 743.243 151.339 747.423 151.262 747.61C151.055 748.009 150.666 748.196 150.304 748.196Z" fill="#C95D32"/>
<path d="M111.239 756.131C111.109 756.131 110.98 756.105 110.85 756.051C110.307 755.838 110.022 755.173 110.255 754.613C113.128 747.21 118.591 743.349 118.798 743.189C119.29 742.843 119.963 742.976 120.299 743.482C120.636 743.988 120.507 744.681 120.015 745.027C119.963 745.053 114.863 748.702 112.248 755.439C112.067 755.865 111.653 756.131 111.239 756.131Z" fill="#C95D32"/>
<path d="M129.05 770.83C128.61 770.83 128.195 770.537 128.04 770.084C126.15 764.572 118.203 766.09 118.125 766.09C117.555 766.197 116.986 765.824 116.856 765.211C116.753 764.599 117.115 764.04 117.711 763.907C121.102 763.241 128.04 763.48 130.059 769.339C130.266 769.925 129.956 770.537 129.412 770.75C129.283 770.803 129.153 770.83 129.05 770.83Z" fill="#C95D32"/>
<path d="M151.055 770.83C150.822 770.83 150.563 770.75 150.356 770.564C149.915 770.164 149.838 769.499 150.226 769.019C150.381 768.833 154.083 764.386 163.973 766.17C164.568 766.277 164.956 766.836 164.853 767.448C164.749 768.061 164.18 768.46 163.61 768.354C155.041 766.809 152.012 770.298 151.883 770.431C151.65 770.697 151.339 770.83 151.055 770.83Z" fill="#C95D32"/>
<path d="M129.774 773.253C129.774 773.253 145.126 774.319 147.948 772.854C150.77 771.389 144.194 778.766 142.589 780.124C140.984 781.482 137.981 783.213 135.522 781.082C133.088 778.952 130.24 775.384 129.774 773.253Z" fill="black"/>
</svg>
